<?xml version="1.0" encoding="UTF-8" standalone="no"?>
<svg width="900px" height="519px" viewBox="0 0 900 519" version="1.1" xmlns="http://www.w3.org/2000/svg" xmlns:xlink="http://www.w3.org/1999/xlink" xmlns:sketch="http://www.bohemiancoding.com/sketch/ns">
    <!-- Generator: Sketch 3.4.2 (15855) - http://www.bohemiancoding.com/sketch -->
    <title>Group</title>
    <desc>Created with Sketch.</desc>
    <defs></defs>
    <g id="Page-1" stroke="none" stroke-width="1" fill="none" fill-rule="evenodd" sketch:type="MSPage">
        <g id="Group" sketch:type="MSLayerGroup">
            <path d="M470.798148,447.335185 L504.451852,447.335185 L504.451852,518.518519 L470.798148,518.518519 L470.798148,447.335185 Z" id="Fill-617" fill="#393A38" sketch:type="MSShapeGroup"></path>
            <path d="M99.0796296,447.335185 L132.733333,447.335185 L132.733333,518.518519 L99.0796296,518.518519 L99.0796296,447.335185 Z" id="Fill-618" fill="#393A38" sketch:type="MSShapeGroup"></path>
            <path d="M552.468519,306.340741 C548.77963,313.688889 511.438889,352.516667 511.438889,352.516667 C511.438889,352.516667 379.822222,352.898148 370.866667,347.762963 C361.909259,342.625926 332.301852,323.794444 329.811111,324.948148 C327.318519,326.103704 296.396296,330.32037 296.396296,330.32037 C296.396296,330.32037 260.887037,353.674074 265.261111,359.057407 C269.635185,364.438889 283.962963,355.498148 283.962963,355.498148 L297.783333,346.585185 L312.038889,345.818519 L302.468519,367.268519 C302.468519,367.268519 305.507407,376.296296 306.807407,376.738889 C308.107407,377.17963 313.212963,377.159259 313.212963,377.159259 L317.092593,382.824074 L326.311111,383.348148 C326.311111,383.348148 329.653704,388.52963 334.277778,389.048148 C338.9,389.564815 362.740741,391.348148 368.218519,388.755556 C373.696296,386.162963 384.024074,383.564815 384.024074,383.564815 C384.024074,383.564815 525.148148,403.35 529.592593,400.557407 C534.037037,397.766667 577.916667,350.783333 580.805556,353.835185 C583.692593,356.887037 552.468519,306.340741 552.468519,306.340741" id="Fill-619" fill="#E0BFAC" sketch:type="MSShapeGroup"></path>
            <path d="M525.324074,328.255556 C523.366667,330.309259 552.027778,387.688889 552.027778,387.688889 C552.027778,387.688889 624.177778,308.911111 623.668519,305.851852 C623.159259,302.792593 619.590741,229.368519 619.590741,229.368519 L525.324074,328.255556" id="Fill-620" fill="#D7822F" sketch:type="MSShapeGroup"></path>
            <path d="M669.811111,199.540741 C665.731481,201.57963 629.303704,216.116667 619.590741,229.368519 C595.95,261.616667 634.375926,392.514815 618.118519,518.518519 L760.746296,518.518519 C788.527778,344.507407 763.225926,226.687037 669.811111,199.540741" id="Fill-621" fill="#EB8D30" sketch:type="MSShapeGroup"></path>
            <path d="M606.588889,172.001852 C616.387037,206.292593 620.183333,234.603704 617.807407,255.118519 C629.301852,256.992593 694.57037,215.77037 675.933333,205.146296 C665.112963,198.97963 658.814815,190.109259 657.066667,146.507407 L606.588889,172.001852" id="Fill-622" fill="#EBC7B3" sketch:type="MSShapeGroup"></path>
            <path d="M518.496296,62.7444444 C518.496296,62.7444444 498.605556,120.02037 497.887037,125.790741 C497.17037,131.562963 507.787037,148.194444 507.787037,148.194444 C507.787037,148.194444 491.968519,167.094444 492.477778,169.635185 C492.983333,172.177778 511.468519,180.2 511.468519,180.2 C511.468519,180.2 517.214815,202.87963 532.185185,215.314815 C547.155556,227.75 590.531481,222.046296 604.151852,217.185185 C648.383333,201.403704 678.985185,159.998148 680.112963,109.116667 C680.935185,72.0314815 646.287037,47.9333333 612.462963,41.0666667 C578.637037,34.2 518.496296,62.7444444 518.496296,62.7444444" id="Fill-623" fill="#F6CFB9" sketch:type="MSShapeGroup"></path>
            <path d="M492.466667,169.477778 L492.477778,169.635185 C492.983333,172.177778 511.468519,180.2 511.468519,180.2 C512.544444,180.674074 513.762963,178.738889 514.525926,177.464815 C515.290741,176.190741 509.174074,174.275926 505.603704,172.746296 C502.044444,171.222222 492.527778,169.488889 492.466667,169.477778" id="Fill-624" fill="#F6CAB4" sketch:type="MSShapeGroup"></path>
            <path d="M527.45,210.744444 C528.914815,212.366667 530.488889,213.907407 532.185185,215.314815 C547.155556,227.75 590.531481,222.046296 604.151852,217.185185 C641.211111,203.962963 668.696296,172.751852 677.301852,133.051852 C672.742593,126.175926 666.461111,123.590741 666.461111,123.590741 L644.814815,139.377778 C657.527778,199.853704 586.862963,228.272222 527.45,210.744444" id="Fill-625" fill="#F6CAB4" sketch:type="MSShapeGroup"></path>
            <path d="M672.268519,33.7240741 C663.72037,-10.1037037 567.142593,19.0833333 539.372222,16.4666667 C513.222222,14.0037037 492.025926,3.54259259 493.198148,5.17407407 C494.37037,6.80555556 504.8,16.5611111 502.357407,15.6962963 C499.916667,14.8296296 487.707407,11.8111111 482.242593,6.63888889 C476.781481,1.46666667 475.788889,0.288888889 475.788889,0.288888889 C475.788889,0.288888889 479.45,28.9888889 481.012963,36.8888889 C482.577778,44.7888889 485.731481,50.0907407 484.446296,48.5037037 C483.159259,46.9166667 470.533333,29.6444444 470.533333,29.6444444 C470.533333,29.6444444 468.659259,43.9796296 481.37037,64.1037037 C494.081481,84.2277778 510.542593,88.7037037 510.542593,88.7037037 C510.542593,88.7037037 560.561111,64.1203704 583.457407,64.9925926 C606.351852,65.8648148 614.474074,75.75 616.17963,81.3666667 C617.885185,86.9814815 614.442593,124.531481 615.951852,136.255556 C617.462963,147.97963 623.574074,145.438889 622.612963,141.205556 C622.388889,140.212963 630.246296,97.0314815 638.235185,92.8574074 C646.661111,88.4555556 658.218519,122.112963 662.624074,128.998148 C668.140741,137.618519 663.285185,168.687037 663.285185,168.687037 C701.359259,124.761111 714.453704,53.1851852 672.268519,33.7240741" id="Fill-626" fill="#935140" sketch:type="MSShapeGroup"></path>
            <path d="M508.931481,88.1555556 C509.961111,88.5462963 510.542593,88.7037037 510.542593,88.7037037 C510.542593,88.7037037 560.561111,64.1203704 583.457407,64.9925926 C606.351852,65.8648148 614.474074,75.75 616.17963,81.3666667 C617.885185,86.9814815 614.442593,124.531481 615.951852,136.255556 C617.462963,147.97963 623.574074,145.438889 622.612963,141.205556 C622.388889,140.212963 630.246296,97.0314815 638.235185,92.8574074 C646.661111,88.4555556 658.22037,122.112963 662.624074,128.998148 C666.418519,134.927778 665.635185,151.853704 664.238889,161.272222 C671.648148,147.298148 677.118519,113.327778 675.016667,98.4314815 C672.212963,78.5444444 648.759259,37.7537037 648.503704,36.4796296 C648.248148,35.2055556 647.992593,65.7981481 647.738889,69.3666667 C647.483333,72.937037 634.225926,35.9685185 634.225926,35.9685185 C634.225926,35.9685185 636.011111,53.5611111 635.246296,66.0537037 C634.481481,78.5462963 627.342593,87.212963 627.342593,87.212963 C623.012963,45.1518519 571.537037,37.8962963 569.468519,28.0648148 C569.035185,26.0055556 584.764815,58.9148148 586.294444,59.9333333 C587.824074,60.9537037 579.157407,59.4240741 566.409259,55.0888889 C553.661111,50.7555556 523.831481,34.95 522.812963,32.1444444 C521.794444,29.3407407 537.853704,67.0722222 537.853704,67.0722222 C537.853704,67.0722222 535.559259,67.0722222 524.168519,60.2 C512.777778,53.3259259 490.17963,21.6925926 490.17963,21.6925926 C490.17963,21.6925926 490.433333,28.3222222 495.27963,42.8537037 C500.122222,57.3851852 510.575926,73.7018519 513.874074,76.1666667 C517.174074,78.6314815 486.1,60.1888889 484.825926,58.9148148 C483.55,57.6407407 485.335185,60.1888889 491.964815,69.6240741 C495.590741,74.7833333 502.344444,82.0055556 508.931481,88.1555556" id="Fill-627" fill="#9E5847" sketch:type="MSShapeGroup"></path>
            <path d="M562.901852,334.405556 C559.02963,341.198148 539.131481,372.598148 539.131481,372.598148 C539.131481,372.598148 405.792593,377.05 397.548148,371.72037 C389.3,366.394444 362.137037,347.018519 359.712963,347.988889 C357.287037,348.959259 327.712963,351.403704 327.712963,351.403704 C327.712963,351.403704 292.814815,371.792593 296.698148,377.122222 C300.581481,382.453704 314.637037,374.687037 314.637037,374.687037 L328.209259,366.92037 L341.785185,366.911111 L341.77963,366.922222 C334.633333,368.803704 327.285185,371.209259 326.083333,371.659259 C324.144444,372.387037 298.688889,395.175926 298.688889,395.781481 C298.688889,396.387037 297.961111,398.205556 305.112963,398.812963 C312.264815,399.418519 314.325926,396.509259 315.051852,396.266667 C315.77963,396.024074 330.82037,384.618519 330.82037,384.618519 L341.524074,380.977778 L320.859259,394.890741 L307.735185,409.1 C313.07037,416.835185 327.357407,406.566667 331.344444,400.7 C333.455556,399.092593 345.781481,394.45 345.440741,396.972222 C343.862963,408.592593 352.166667,407.662963 360.722222,409.081481 C365.087037,409.805556 387.633333,412.7 392.964815,410.514815 C398.298148,408.32963 408.237037,406.383333 408.237037,406.383333 C408.237037,406.383333 538.875926,430.738889 553.435185,424.742593 C567.996296,418.744444 588.612963,375.97037 591.2,379.012963 C593.788889,382.055556 562.901852,334.405556 562.901852,334.405556" id="Fill-628" fill="#F6CFB9" sketch:type="MSShapeGroup"></path>
            <path d="M694.911111,218.511111 C691.244444,214.390741 681.177778,194.701852 654.872222,216.409259 C628.564815,238.116667 545.140741,351.224074 545.140741,351.224074 L583.159259,398.414815 C583.159259,398.414815 673.064815,297.774074 689.131481,276.472222 C705.198148,255.17037 694.911111,218.511111 694.911111,218.511111" id="Fill-629" fill="#EB8D30" sketch:type="MSShapeGroup"></path>
            <path d="M0.692592593,436.562963 L606.22037,436.562963 L606.22037,462.018519 L0.692592593,462.018519 L0.692592593,436.562963 Z" id="Fill-630" fill="#6A5C4A" sketch:type="MSShapeGroup"></path>
            <path d="M0.692592593,428.077778 L606.22037,428.077778 L606.22037,445.048148 L0.692592593,445.048148 L0.692592593,428.077778 Z" id="Fill-631" fill="#76634B" sketch:type="MSShapeGroup"></path>
            <path d="M633.868519,105.17963 C628.751852,106.112963 528.938889,141.038889 528.938889,141.038889 L518.327778,135.642593 L523.251852,127.487037 C523.251852,127.487037 633.131481,96.4185185 633.035185,97.5555556 C632.937037,98.6907407 633.868519,105.17963 633.868519,105.17963" id="Fill-632" fill="#393A38" sketch:type="MSShapeGroup"></path>
            <path d="M523.251852,127.487037 C520.955556,127.940741 507.846296,131.766667 502.440741,133.477778 C500.185185,134.190741 497.794444,134.157407 499.225926,138.32037 C500.97037,143.390741 504.52037,153.512963 507.646296,161.138889 C514.359259,177.511111 537.935185,179.094444 531.109259,148.305556 C529.209259,139.737037 523.251852,127.487037 523.251852,127.487037" id="Fill-633" fill="#393A38" sketch:type="MSShapeGroup"></path>
            <path d="M520.703704,129.392593 C518.107407,129.983333 509.422222,132.114815 504.394444,134.253704 C500.851852,135.761111 499.844444,136.151852 500.97037,139.55 C502.655556,144.644444 505.831481,154.15 508.538889,160.774074 C510.022222,164.401852 512.481481,167.731481 515.651852,169.868519 C518.1,171.518519 521.151852,172.524074 523.888889,171.67037 C531.633333,169.257407 529.690741,155.668519 528.188889,149.3 C526.711111,143.044444 523.533333,135.342593 520.703704,129.392593" id="Fill-634" fill="#E6E7E3" sketch:type="MSShapeGroup"></path>
            <path d="M653.077778,83.2907407 C663.835185,85.7777778 670.705556,100.35 668.422222,115.837037 C666.140741,131.325926 655.57037,141.862963 644.814815,139.377778 C634.055556,136.888889 627.187037,122.318519 629.468519,106.82963 C631.751852,91.3425926 642.32037,80.8037037 653.077778,83.2907407" id="Fill-635" fill="#F6CFB9" sketch:type="MSShapeGroup"></path>
            <path d="M639.862963,101.507407 C641.47963,98.6722222 646.325926,91.5351852 653.138889,93.4925926 C659.951852,95.4518519 664.055556,103.65 661.942593,113.588889 C659.827778,123.527778 655.662963,134.642593 647.777778,135.946296 C639.892593,137.25 634.490741,129.427778 637.672222,125.694444 C640.853704,121.962963 643.709259,115.342593 640.592593,113.014815 C637.472222,110.687037 635.294444,110.72963 635.962963,108.268519 C636.633333,105.807407 639.924074,101.4 639.862963,101.507407" id="Fill-636" fill="#E2AB8F" sketch:type="MSShapeGroup"></path>
            <path d="M639.862963,101.507407 C641.312963,98.9648148 645.361111,92.9611111 651.096296,93.1648148 C656.675926,96.0296296 659.785185,103.544444 657.888889,112.462963 C655.774074,122.401852 651.611111,133.516667 643.724074,134.82037 C642.918519,134.953704 642.140741,134.990741 641.392593,134.946296 C637.385185,132.831481 635.468519,128.281481 637.672222,125.694444 C640.853704,121.962963 643.709259,115.342593 640.592593,113.014815 C637.472222,110.687037 635.294444,110.72963 635.962963,108.268519 C636.633333,105.807407 639.924074,101.4 639.862963,101.507407" id="Fill-637" fill="#E7B196" sketch:type="MSShapeGroup"></path>
            <path d="M428.896296,423.551852 L490.096296,423.551852 L490.096296,428.077778 L428.896296,428.077778 L428.896296,423.551852 Z" id="Fill-638" fill="#E6E7E3" sketch:type="MSShapeGroup"></path>
            <path d="M491.881481,378.901852 L491.881481,402.744444 C491.881481,403.387037 491.846296,404.022222 491.783333,404.646296 L499.959259,404.646296 C502.507407,404.646296 504.592593,402.561111 504.592593,400.011111 L504.592593,383.535185 C504.592593,380.987037 502.507407,378.901852 499.959259,378.901852 L491.881481,378.901852 L491.881481,378.901852 Z M491.881481,373.840741 L491.881481,374.885185 L499.959259,374.885185 C504.716667,374.885185 508.609259,378.777778 508.609259,383.535185 L508.609259,400.011111 C508.609259,404.77037 504.716667,408.662963 499.959259,408.662963 L490.922222,408.662963 C490.1,411.107407 488.785185,413.281481 487.118519,415.02037 L431.872222,415.02037 C428.951852,411.974074 427.111111,407.592593 427.111111,402.744444 L427.111111,373.840741 L491.881481,373.840741 L491.881481,373.840741 Z" id="Fill-639" fill="#935140" sketch:type="MSShapeGroup"></path>
            <path d="M427.111111,371.405556 L491.881481,371.405556 L491.881481,373.840741 L427.111111,373.840741 L427.111111,371.405556 Z" id="Fill-640" fill="#CCCDC9" sketch:type="MSShapeGroup"></path>
            <path d="M493.059259,425.466667 L525.538889,415.02037 L393.451852,415.02037 L425.933333,425.466667 L493.059259,425.466667" id="Fill-641" fill="#CCCDC9" sketch:type="MSShapeGroup"></path>
            <path d="M428.896296,423.551852 L459.496296,423.551852 L459.496296,428.077778 L428.896296,428.077778 L428.896296,423.551852 Z" id="Fill-642" fill="#A2A4A1" sketch:type="MSShapeGroup"></path>
            <path d="M431.872222,415.02037 C428.951852,411.974074 427.111111,407.592593 427.111111,402.744444 L427.111111,373.840741 L459.496296,373.840741 L459.496296,415.02037 L431.872222,415.02037" id="Fill-643" fill="#7F4939" sketch:type="MSShapeGroup"></path>
            <path d="M427.111111,371.405556 L459.496296,371.405556 L459.496296,373.840741 L427.111111,373.840741 L427.111111,371.405556 Z" id="Fill-644" fill="#B0B0AC" sketch:type="MSShapeGroup"></path>
            <path d="M459.496296,415.02037 L393.451852,415.02037 L425.933333,425.466667 L459.496296,425.466667 L459.496296,415.02037" id="Fill-645" fill="#B7B7B3" sketch:type="MSShapeGroup"></path>
            <path d="M51.6240741,217.744444 L171.190741,418.683333 C173.387037,422.375926 178.205556,423.598148 181.9,421.401852 C185.592593,419.203704 186.816667,414.385185 184.618519,410.692593 L65.0518519,209.753704 C62.8537037,206.061111 58.0351852,204.838889 54.3425926,207.035185 C50.6518519,209.233333 49.4277778,214.051852 51.6240741,217.744444" id="Fill-646" fill="#565757" sketch:type="MSShapeGroup"></path>
            <path d="M51.6240741,217.744444 L171.190741,418.683333 C173.387037,422.375926 178.205556,423.598148 181.9,421.401852 L182.159259,421.238889 L54.3425926,207.035185 C50.6518519,209.233333 49.4277778,214.051852 51.6240741,217.744444" id="Fill-647" fill="#464645" sketch:type="MSShapeGroup"></path>
            <path d="M203.698148,410.642593 L224.485185,410.642593 L224.485185,414.12963 L203.698148,414.12963 L203.698148,410.642593 Z" id="Fill-648" fill="#515251" sketch:type="MSShapeGroup"></path>
            <path d="M226.088889,410.642593 L246.875926,410.642593 L246.875926,414.12963 L226.088889,414.12963 L226.088889,410.642593 Z" id="Fill-649" fill="#515251" sketch:type="MSShapeGroup"></path>
            <path d="M248.481481,410.642593 L269.268519,410.642593 L269.268519,414.12963 L248.481481,414.12963 L248.481481,410.642593 Z" id="Fill-650" fill="#515251" sketch:type="MSShapeGroup"></path>
            <path d="M270.872222,410.642593 L291.659259,410.642593 L291.659259,414.12963 L270.872222,414.12963 L270.872222,410.642593 Z" id="Fill-651" fill="#515251" sketch:type="MSShapeGroup"></path>
            <path d="M416.12037,412.453704 L182.3,412.453704 C178.001852,412.453704 174.487037,415.968519 174.487037,420.266667 C174.487037,424.562963 178.001852,428.077778 182.3,428.077778 L416.12037,428.077778 C420.416667,428.077778 423.933333,424.562963 423.933333,420.266667 C423.933333,415.968519 420.416667,412.453704 416.12037,412.453704" id="Fill-652" fill="#393A38" sketch:type="MSShapeGroup"></path>
            <path d="M344.211111,418.559259 L364.946296,418.559259 L364.946296,423.861111 L344.211111,423.861111 L344.211111,418.559259 Z" id="Fill-653" fill="#30322F" sketch:type="MSShapeGroup"></path>
            <path d="M372.024074,418.559259 L392.761111,418.559259 L392.761111,423.861111 L372.024074,423.861111 L372.024074,418.559259 Z" id="Fill-654" fill="#30322F" sketch:type="MSShapeGroup"></path>
            <path d="M206.27037,416.601852 L328.838889,416.601852 C329.912963,416.601852 330.790741,417.47963 330.790741,418.553704 L330.790741,423.024074 C330.790741,424.096296 329.912963,424.974074 328.838889,424.974074 L206.27037,424.974074 C205.196296,424.974074 204.318519,424.096296 204.318519,423.024074 L204.318519,418.553704 C204.318519,417.47963 205.196296,416.601852 206.27037,416.601852" id="Fill-655" fill="#30322F" sketch:type="MSShapeGroup"></path>
            <path d="M583.159259,398.414815 C583.159259,398.414815 598.618519,381.111111 617.861111,359.333333 C621.892593,407.587037 625.212963,463.518519 618.118519,518.518519 L679.485185,518.518519 C676.138889,473.798148 668.72963,304.251852 672.216667,297.009259 C673.131481,291.696296 610.2,359.294444 593.690741,373.525926 C592.401852,374.635185 591.12037,375.62963 589.853704,376.518519 C582.966667,381.338889 576.424074,383.027778 570.864815,383.153704 L583.159259,398.414815" id="Fill-656" fill="#D7822F" sketch:type="MSShapeGroup"></path>
            <path d="M528.938889,141.038889 C529.822222,143.522222 530.607407,146.042593 531.109259,148.305556 C534.775926,164.844444 529.67037,172.040741 523.118519,172.624074 C532.468519,174.1 537.427778,166.427778 538.111111,159.366667 C538.875926,151.462963 538.111111,144.324074 538.111111,144.324074 L615.838889,114.37037 C615.87963,113.238889 615.922222,112.098148 615.964815,110.957407 C585.898148,121.109259 528.938889,141.038889 528.938889,141.038889" id="Fill-657" fill="#E9BBA4" sketch:type="MSShapeGroup"></path>
            <path d="M615.964815,110.957407 C615.922222,112.098148 615.87963,113.238889 615.838889,114.37037 L629.187037,109.225926 C629.257407,108.431481 629.35,107.631481 629.468519,106.82963 L629.524074,106.462963 C626.32963,107.481481 621.624074,109.046296 615.964815,110.957407" id="Fill-658" fill="#924D3E" sketch:type="MSShapeGroup"></path>
            <path d="M847.840741,167.12963 C874.040741,160.916667 896.631481,168.964815 899.244444,197.703704 C899.498148,200.498148 838.640741,346.783333 834.135185,406.851852 C832.37037,430.388889 823.427778,479.327778 818.585185,518.518519 L747.561111,518.518519 C760.227778,428.322222 775.905556,184.187037 847.840741,167.12963" id="Fill-659" fill="#393A38" sketch:type="MSShapeGroup"></path>
            <path d="M896.87037,186.42963 C898.051852,189.761111 898.862963,193.511111 899.244444,197.703704 C899.505556,200.577778 841.02963,340.259259 824.762963,518.518519 L786.442593,518.518519 C795.912963,421.412963 808.175926,215.446296 896.87037,186.42963" id="Fill-660" fill="#2E302F" sketch:type="MSShapeGroup"></path>
            <path d="M781.77963,444.324074 C770.412963,443.588889 473.066667,433.107407 541.538889,485.77963 C547.92037,490.688889 597.431481,476.940741 654.498148,476.062963 C721.003704,475.038889 796.255556,486.351852 801.977778,485.77963 C812.607407,484.718519 821.111111,474.62037 816.327778,458.674074 C811.544444,442.727778 781.77963,444.324074 781.77963,444.324074" id="Fill-661" fill="#515251" sketch:type="MSShapeGroup"></path>
            <path d="M614.135185,462.627778 C577.237037,465.822222 545.909259,470.144444 531.411111,472.718519 C531.998148,476.57037 535.201852,480.905556 541.538889,485.77963 C542.1,486.212963 542.996296,486.5 544.201852,486.664815 C550.97963,483.788889 556.437037,482.224074 556.638889,486.164815 C569.638889,484.703704 589.72963,481.157407 613.374074,478.672222 C626.222222,477.322222 640.12037,476.283333 654.498148,476.062963 C657.72037,476.012963 660.962963,475.990741 664.216667,475.996296 C696.492593,476.051852 729.907407,478.685185 755.787037,481.209259 C756.268519,481.255556 756.744444,481.301852 757.22037,481.348148 C781.838889,483.77037 799.333333,486.044444 801.977778,485.77963 C806.162963,485.361111 810.018519,483.542593 812.864815,480.516667 C802.835185,471.025926 783.711111,465.22037 759.868519,461.983333 C758.988889,461.862963 758.103704,461.746296 757.211111,461.635185 C729.601852,458.151852 696.051852,457.961111 663.064815,459.398148 C646.325926,460.127778 629.733333,461.275926 614.135185,462.627778" id="Fill-662" fill="#3F3F3F" sketch:type="MSShapeGroup"></path>
        </g>
    </g>
</svg>